<svg data-v-947909ac="" xmlns="http://www.w3.org/2000/svg" width="16" height="16" viewBox="0 0 16 16" fill="none" class="close-icon"><path data-v-947909ac="" d="M11.1153 4.16924L11.8303 4.88423C12.0559 5.10988 12.0559 5.47573 11.8303 5.70137L9.53141 7.99986L11.8303 10.2986C12.0559 10.5243 12.0559 10.8901 11.8303 11.1158L11.1153 11.8308C10.8897 12.0564 10.5238 12.0564 10.2982 11.8308L7.99878 9.53105L5.70174 11.8299C5.47609 12.0556 5.11025 12.0556 4.8846 11.8299L4.1696 11.1149C3.94395 10.8893 3.94395 10.5234 4.1696 10.2978L6.46615 7.99986L4.1696 5.70221C3.94395 5.47656 3.94395 5.11072 4.1696 4.88507L4.8846 4.17007C5.11025 3.94442 5.47609 3.94442 5.70174 4.17007L7.99878 6.46723L10.2982 4.16924C10.5238 3.94359 10.8897 3.94359 11.1153 4.16924Z" fill="#333940"></path></svg>